<svg width="14" height="11" viewBox="0 0 14 11" version="1.1" xmlns="http://www.w3.org/2000/svg" xmlns:xlink="http://www.w3.org/1999/xlink">
<title>Vector</title>
<desc>Created using Figma</desc>
<g id="Canvas" transform="translate(-23584 -5650)">
<g id="Vector">
<use xlink:href="#path0_stroke" transform="matrix(-2.09537e-09 1 -1 -2.09537e-09 23597 5651)" fill="#404652"/>
</g>
</g>
<defs>
<path id="path0_stroke" d="M 4.2953 11.9174L 3.94463 12.2738L 3.94709 12.2762L 4.2953 11.9174ZM 4.3403 11.9531L 4.0698 12.3736L 4.08838 12.3855L 4.10794 12.3958L 4.3403 11.9531ZM 4.36208 11.9645L 4.12972 12.4072L 4.13211 12.4085L 4.36208 11.9645ZM 4.38966 11.9788L 4.1597 12.4228L 4.20219 12.4448L 4.24807 12.4583L 4.38966 11.9788ZM 4.4187 11.9874L 4.27711 12.4669L 4.27969 12.4677L 4.4187 11.9874ZM 4.44338 11.9945L 4.30437 12.4748L 4.32564 12.481L 4.34737 12.4852L 4.44338 11.9945ZM 4.55662 11.9945L 4.65263 12.4852L 4.67436 12.481L 4.69563 12.4748L 4.55662 11.9945ZM 4.5813 11.9874L 4.72031 12.4677L 4.72289 12.4669L 4.5813 11.9874ZM 4.61034 11.9788L 4.75193 12.4583L 4.79781 12.4448L 4.8403 12.4228L 4.61034 11.9788ZM 4.63792 11.9645L 4.86789 12.4085L 4.87028 12.4072L 4.63792 11.9645ZM 4.6597 11.9531L 4.89206 12.3958L 4.91162 12.3855L 4.9302 12.3736L 4.6597 11.9531ZM 4.7047 11.9174L 5.05292 12.2762L 5.05542 12.2737L 4.7047 11.9174ZM 8.91491 7.77393L 8.56419 7.41756L 8.91491 7.77393ZM 9 7.57176L 8.5 7.57176L 9 7.57176ZM 8.50405 7.36959L 8.15333 7.01322L 8.1532 7.01336L 8.50405 7.36959ZM 4.79181 11.0258L 4.29181 11.0258L 4.29181 12.2201L 5.14267 11.382L 4.79181 11.0258ZM 4.50145 1.269e-16L 4.50145 -0.5L 4.50145 1.269e-16ZM 4.29614 0.0836953L 3.94542 -0.272673L 4.29614 0.0836953ZM 4.21109 11.0258L 3.86045 11.3822L 4.71109 12.2191L 4.71109 11.0258L 4.21109 11.0258ZM 0.495949 7.37102L 0.145233 7.72739L 0.145303 7.72746L 0.495949 7.37102ZM 0.290521 7.28728L 0.290521 6.78728L 0.290521 7.28728ZM -1.25088e-07 7.57319L 0.5 7.57319L -1.25088e-07 7.57319ZM 0.0850915 7.77536L -0.265625 8.13173L -0.265563 8.13179L 0.0850915 7.77536ZM 3.94709 12.2762C 3.98471 12.3127 4.02583 12.3453 4.0698 12.3736L 4.61081 11.5326C 4.62244 11.5401 4.6334 11.5487 4.64351 11.5585L 3.94709 12.2762ZM 4.10794 12.3958L 4.12972 12.4072L 4.59444 11.5218L 4.57266 11.5104L 4.10794 12.3958ZM 4.13211 12.4085L 4.1597 12.4228L 4.61963 11.5348L 4.59204 11.5205L 4.13211 12.4085ZM 4.24807 12.4583L 4.27711 12.4669L 4.56029 11.5078L 4.53125 11.4993L 4.24807 12.4583ZM 4.27969 12.4677L 4.30437 12.4748L 4.58239 11.5142L 4.55771 11.5071L 4.27969 12.4677ZM 4.34737 12.4852C 4.44816 12.5049 4.55184 12.5049 4.65263 12.4852L 4.46061 11.5038C 4.48663 11.4987 4.51337 11.4987 4.53939 11.5038L 4.34737 12.4852ZM 4.69563 12.4748L 4.72031 12.4677L 4.44229 11.5071L 4.41761 11.5142L 4.69563 12.4748ZM 4.72289 12.4669L 4.75193 12.4583L 4.46875 11.4993L 4.43971 11.5078L 4.72289 12.4669ZM 4.8403 12.4228L 4.86789 12.4085L 4.40796 11.5205L 4.38037 11.5348L 4.8403 12.4228ZM 4.87028 12.4072L 4.89206 12.3958L 4.42734 11.5104L 4.40556 11.5218L 4.87028 12.4072ZM 4.9302 12.3736C 4.97417 12.3453 5.01529 12.3127 5.05291 12.2762L 4.35649 11.5585C 4.3666 11.5487 4.37757 11.54 4.38919 11.5326L 4.9302 12.3736ZM 5.05542 12.2737L 9.26562 8.1303L 8.56419 7.41756L 4.35399 11.561L 5.05542 12.2737ZM 9.26562 8.1303C 9.41474 7.98355 9.5 7.7828 9.5 7.57176L 8.5 7.57176C 8.5 7.51238 8.52404 7.45707 8.56419 7.41756L 9.26562 8.1303ZM 9.5 7.57176C 9.5 7.36072 9.41474 7.15997 9.26562 7.01322L 8.56419 7.72596C 8.52404 7.68645 8.5 7.63114 8.5 7.57176L 9.5 7.57176ZM 9.26562 7.01322C 9.11678 6.86674 8.91658 6.78585 8.70948 6.78585L 8.70948 7.78585C 8.65648 7.78585 8.60407 7.7652 8.56419 7.72596L 9.26562 7.01322ZM 8.70948 6.78585C 8.50238 6.78585 8.30218 6.86674 8.15333 7.01322L 8.85477 7.72596C 8.81489 7.7652 8.76248 7.78585 8.70948 7.78585L 8.70948 6.78585ZM 8.1532 7.01336L 4.44096 10.6696L 5.14267 11.382L 8.85491 7.72582L 8.1532 7.01336ZM 5.29181 11.0258L 5.29181 0.285754L 4.29181 0.285754L 4.29181 11.0258L 5.29181 11.0258ZM 5.29181 0.285754C 5.29181 0.074757 5.20657 -0.125953 5.05748 -0.272673L 4.35605 0.440064C 4.31587 0.400522 4.29181 0.345177 4.29181 0.285754L 5.29181 0.285754ZM 5.05748 -0.272673C 4.90867 -0.419126 4.70851 -0.5 4.50145 -0.5L 4.50145 0.5C 4.44841 0.5 4.39596 0.479338 4.35605 0.440064L 5.05748 -0.272673ZM 4.50145 -0.5C 4.29439 -0.5 4.09423 -0.419126 3.94542 -0.272673L 4.64685 0.440064C 4.60695 0.479338 4.5545 0.5 4.50145 0.5L 4.50145 -0.5ZM 3.94542 -0.272673C 3.79634 -0.125953 3.71109 0.074757 3.71109 0.285754L 4.71109 0.285754C 4.71109 0.345177 4.68703 0.400522 4.64685 0.440064L 3.94542 -0.272673ZM 3.71109 0.285754L 3.71109 11.0258L 4.71109 11.0258L 4.71109 0.285754L 3.71109 0.285754ZM 4.56174 10.6694L 0.846596 7.01458L 0.145303 7.72746L 3.86045 11.3822L 4.56174 10.6694ZM 0.846665 7.01465C 0.772906 6.94206 0.685772 6.88489 0.59044 6.84603L 0.212955 7.77205C 0.188118 7.76192 0.165038 7.74688 0.145233 7.72739L 0.846665 7.01465ZM 0.59044 6.84603C 0.495122 6.80718 0.393233 6.78728 0.290521 6.78728L 0.290521 7.78728C 0.264112 7.78728 0.237778 7.78217 0.212955 7.77205L 0.59044 6.84603ZM 0.290521 6.78728C 0.187809 6.78728 0.0859191 6.80718 -0.0093992 6.84603L 0.368086 7.77205C 0.343262 7.78217 0.316929 7.78728 0.290521 7.78728L 0.290521 6.78728ZM -0.0093992 6.84603C -0.104731 6.88489 -0.191865 6.94206 -0.265625 7.01465L 0.435807 7.72739C 0.416003 7.74688 0.392923 7.76192 0.368086 7.77205L -0.0093992 6.84603ZM -0.265625 7.01465C -0.339402 7.08726 -0.398358 7.17389 -0.43873 7.26981L 0.482959 7.65774C 0.471787 7.68428 0.45563 7.70788 0.435807 7.72739L -0.265625 7.01465ZM -0.43873 7.26981C -0.479109 7.36575 -0.5 7.46886 -0.5 7.57319L 0.5 7.57319C 0.5 7.60242 0.494138 7.63118 0.482959 7.65774L -0.43873 7.26981ZM -0.5 7.57319C -0.5 7.67752 -0.479109 7.78063 -0.43873 7.87657L 0.482959 7.48864C 0.494138 7.5152 0.5 7.54395 0.5 7.57319L -0.5 7.57319ZM -0.43873 7.87657C -0.398357 7.97249 -0.3394 8.05912 -0.265625 8.13173L 0.435807 7.41899C 0.455629 7.4385 0.471786 7.46209 0.482959 7.48864L -0.43873 7.87657ZM -0.265563 8.13179L 3.94464 12.2738L 4.64595 11.5609L 0.435746 7.41893L -0.265563 8.13179Z"/>
</defs>
</svg>
