<svg width="18" height="19" viewBox="0 0 18 19" version="1.1" xmlns="http://www.w3.org/2000/svg" xmlns:xlink="http://www.w3.org/1999/xlink">
<title>@</title>
<desc>Created using Figma</desc>
<g id="Canvas" transform="translate(-21375 -7530)">
<g id="@" opacity="0.5">
<use xlink:href="#path0_fill" transform="translate(21375.2 7530.57)" fill="#F7F6F1"/>
</g>
</g>
<defs>
<path id="path0_fill" d="M 9.768 0C 11.288 0 12.624 0.304 13.776 0.912C 14.928 1.504 15.816 2.352 16.44 3.456C 17.08 4.544 17.4 5.808 17.4 7.248C 17.4 7.664 17.376 8.088 17.328 8.52C 17.136 10.056 16.664 11.248 15.912 12.096C 15.16 12.944 14.176 13.368 12.96 13.368C 12.4 13.368 11.904 13.28 11.472 13.104C 11.04 12.928 10.696 12.672 10.44 12.336C 10.36 12.256 10.296 12.256 10.248 12.336C 9.944 12.672 9.568 12.928 9.12 13.104C 8.688 13.264 8.248 13.344 7.8 13.344C 6.92 13.344 6.192 13.128 5.616 12.696C 5.056 12.248 4.72 11.68 4.608 10.992C 4.576 10.704 4.56 10.472 4.56 10.296C 4.56 9.912 4.6 9.456 4.68 8.928C 4.776 8.112 4.928 7.44 5.136 6.912C 5.408 6.144 5.848 5.552 6.456 5.136C 7.08 4.72 7.76 4.512 8.496 4.512C 9.312 4.512 9.928 4.752 10.344 5.232C 10.376 5.264 10.408 5.28 10.44 5.28C 10.488 5.264 10.52 5.232 10.536 5.184L 10.56 4.968C 10.592 4.728 10.728 4.608 10.968 4.608L 12.072 4.608C 12.184 4.608 12.272 4.648 12.336 4.728C 12.416 4.792 12.448 4.888 12.432 5.016L 11.832 9.552C 11.816 9.648 11.808 9.792 11.808 9.984C 11.808 10.464 11.928 10.856 12.168 11.16C 12.408 11.464 12.736 11.616 13.152 11.616C 13.728 11.616 14.2 11.36 14.568 10.848C 14.952 10.32 15.208 9.576 15.336 8.616C 15.4 8.216 15.432 7.792 15.432 7.344C 15.432 5.568 14.904 4.192 13.848 3.216C 12.808 2.24 11.408 1.752 9.648 1.752C 8.336 1.752 7.112 2.048 5.976 2.64C 4.856 3.216 3.928 4.064 3.192 5.184C 2.472 6.288 2.056 7.6 1.944 9.12C 1.928 9.296 1.92 9.552 1.92 9.888C 1.92 11.072 2.152 12.112 2.616 13.008C 3.08 13.904 3.744 14.6 4.608 15.096C 5.472 15.592 6.488 15.84 7.656 15.84C 8.392 15.84 9.104 15.752 9.792 15.576C 10.48 15.416 11.032 15.208 11.448 14.952C 11.544 14.904 11.624 14.88 11.688 14.88C 11.816 14.88 11.912 14.928 11.976 15.024L 12.528 15.696C 12.592 15.776 12.624 15.864 12.624 15.96C 12.624 16.088 12.576 16.184 12.48 16.248C 11.888 16.664 11.128 17 10.2 17.256C 9.288 17.512 8.352 17.64 7.392 17.64C 5.952 17.64 4.672 17.32 3.552 16.68C 2.432 16.04 1.56 15.136 0.936 13.968C 0.312 12.8 0 11.448 0 9.912C 0 9.704 0.0160001 9.36 0.0480001 8.88C 0.208 7.104 0.744 5.544 1.656 4.2C 2.584 2.856 3.76 1.824 5.184 1.104C 6.608 0.368 8.136 0 9.768 0ZM 7.944 11.712C 8.328 11.712 8.664 11.6 8.952 11.376C 9.24 11.152 9.464 10.856 9.624 10.488C 9.704 10.312 9.768 10.12 9.816 9.912C 9.88 9.704 9.936 9.368 9.984 8.904C 10.032 8.376 10.056 8.016 10.056 7.824L 10.032 7.344C 10 6.992 9.856 6.704 9.6 6.48C 9.36 6.256 9.04 6.144 8.64 6.144C 8.256 6.144 7.904 6.256 7.584 6.48C 7.28 6.704 7.048 6.992 6.888 7.344C 6.76 7.632 6.64 8.184 6.528 9C 6.464 9.432 6.432 9.776 6.432 10.032C 6.432 10.176 6.448 10.328 6.48 10.488C 6.512 10.856 6.656 11.152 6.912 11.376C 7.184 11.6 7.528 11.712 7.944 11.712Z"/>
</defs>
</svg>
