<svg width="17" height="17" viewBox="0 0 17 17" version="1.1" xmlns="http://www.w3.org/2000/svg" xmlns:xlink="http://www.w3.org/1999/xlink">
<title>Group 4</title>
<desc>Created using Figma</desc>
<g id="Canvas" transform="translate(-21375 -7611)">
<g id="Group 4" opacity="0.3">
<g id="Vector">
<use xlink:href="#path0_fill" transform="translate(21380.5 7616.42)" fill="#FFFFFF"/>
</g>
<g id="Vector">
<use xlink:href="#path1_fill" transform="translate(21375 7611)" fill="#FFFFFF"/>
</g>
</g>
</g>
<defs>
<path id="path0_fill" d="M 3.08125 6.1625C 4.78298 6.1625 6.1625 4.78298 6.1625 3.08125C 6.1625 1.37952 4.78298 0 3.08125 0C 1.37952 0 0 1.37952 0 3.08125C 0 4.78298 1.37952 6.1625 3.08125 6.1625Z"/>
<path id="path1_fill" d="M 17 7.735L 15.47 7.735C 15.13 4.4625 12.5375 1.87 9.265 1.53L 9.265 0L 7.71375 0L 7.71375 1.55125C 4.505 1.93375 1.955 4.505 1.615 7.735L 0 7.735L 0 9.28625L 1.63625 9.28625C 2.01875 12.4738 4.5475 14.9813 7.71375 15.3638L 7.71375 17L 9.265 17L 9.265 15.3638C 12.495 15.0238 15.0662 12.4737 15.4487 9.265L 17 9.265L 17 7.735ZM 9.265 13.8125C 9.15875 13.8338 9.07375 13.8337 8.9675 13.855C 8.81875 13.8762 8.69125 13.8763 8.5425 13.8763C 8.39375 13.8763 8.245 13.8762 8.09625 13.855C 7.96875 13.8337 7.84125 13.8338 7.71375 13.8125C 5.37625 13.4512 3.54875 11.6238 3.1875 9.28625C 3.16625 9.15875 3.145 9.03125 3.145 8.90375C 3.12375 8.755 3.12375 8.60625 3.12375 8.4575C 3.12375 8.30875 3.12375 8.18125 3.145 8.0325C 3.145 7.92625 3.16625 7.84125 3.1875 7.735C 3.50625 5.355 5.355 3.485 7.71375 3.12375C 7.84125 3.1025 7.96875 3.08125 8.09625 3.08125C 8.245 3.06 8.39375 3.06 8.5425 3.06C 8.69125 3.06 8.81875 3.06 8.9675 3.08125C 9.07375 3.08125 9.15875 3.1025 9.265 3.12375C 11.6875 3.42125 13.5788 5.3125 13.8975 7.735C 13.9188 7.84125 13.9187 7.92625 13.94 8.0325C 13.9612 8.18125 13.9612 8.30875 13.9612 8.4575C 13.9612 8.60625 13.9612 8.755 13.94 8.90375C 13.9187 9.03125 13.9188 9.15875 13.8975 9.28625C 13.5363 11.6238 11.645 13.4938 9.265 13.8125Z"/>
</defs>
</svg>
