<?xml version="1.0" standalone="no"?>
<!DOCTYPE svg PUBLIC "-//W3C//DTD SVG 20010904//EN"
 "http://www.w3.org/TR/2001/REC-SVG-20010904/DTD/svg10.dtd">
<svg version="1.0" xmlns="http://www.w3.org/2000/svg"
 width="300.000000pt" height="300.000000pt" viewBox="0 0 300.000000 300.000000"
 preserveAspectRatio="xMidYMid meet">
<metadata>
Created by potrace 1.11, written by Peter Selinger 2001-2013
</metadata>
<g transform="translate(0.000000,300.000000) scale(0.100000,-0.100000)"
fill="#000000" stroke="none">
<path d="M987 2062 c-273 -152 -497 -279 -497 -282 0 -3 104 -63 230 -134
l231 -129 -28 -17 c-15 -9 -119 -67 -230 -129 -112 -63 -203 -116 -203 -120 1
-8 981 -554 995 -554 13 0 995 546 995 553 0 3 -75 48 -167 100 -93 52 -196
111 -231 131 l-63 36 230 128 c127 70 231 130 231 134 -1 5 -523 299 -920 518
l-76 42 -497 -277z m918 -37 c230 -129 422 -238 427 -243 4 -4 -184 -115 -418
-246 -414 -231 -427 -238 -454 -225 -66 33 -830 464 -830 469 0 5 839 477 851
479 3 1 194 -105 424 -234z m-467 -781 l47 -26 227 126 c124 69 230 126 234
126 5 0 95 -48 201 -107 151 -83 191 -109 181 -118 -19 -17 -831 -468 -843
-468 -10 0 -806 442 -839 466 -15 11 7 26 180 123 l197 111 184 -103 c101 -57
205 -115 231 -130z"/>
</g>
</svg>
